<svg xmlns="http://www.w3.org/2000/svg" style="display: none">

    <symbol id="icon-home" viewBox="0 0 24 24" stroke-width="1.5" stroke-linecap="round" stroke-linejoin="round">
        <path d="M3 9l9-7 9 7v11a2 2 0 0 1-2 2H5a2 2 0 0 1-2-2z"></path>
        <polyline points="9 22 9 12 15 12 15 22"></polyline>
    </symbol>

    <symbol id="icon-mail" viewBox="0 0 24 24" stroke-width="1.5" stroke-linecap="round" stroke-linejoin="round">
        <path d="M4 4h16c1.1 0 2 .9 2 2v12c0 1.1-.9 2-2 2H4c-1.1 0-2-.9-2-2V6c0-1.1.9-2 2-2z"></path>
        <polyline points="22,6 12,13 2,6"></polyline>
    </symbol>

    <symbol id="icon-react" viewBox="0 0 128 128" enable-background="new 0 0 128 128">
        <circle cx="64" cy="64" r="11.4"/>
        <path d="M107.3 45.2c-2.2-.8-4.5-1.6-6.9-2.3.6-2.4 1.1-4.8 1.5-7.1 2.1-13.2-.2-22.5-6.6-26.1-1.9-1.1-4-1.6-6.4-1.6-7 0-15.9 5.2-24.9 13.9-9-8.7-17.9-13.9-24.9-13.9-2.4 0-4.5.5-6.4 1.6-6.4 3.7-8.7 13-6.6 26.1.4 2.3.9 4.7 1.5 7.1-2.4.7-4.7 1.4-6.9 2.3-12.5 4.8-19.3 11.4-19.3 18.8s6.9 14 19.3 18.8c2.2.8 4.5 1.6 6.9 2.3-.6 2.4-1.1 4.8-1.5 7.1-2.1 13.2.2 22.5 6.6 26.1 1.9 1.1 4 1.6 6.4 1.6 7.1 0 16-5.2 24.9-13.9 9 8.7 17.9 13.9 24.9 13.9 2.4 0 4.5-.5 6.4-1.6 6.4-3.7 8.7-13 6.6-26.1-.4-2.3-.9-4.7-1.5-7.1 2.4-.7 4.7-1.4 6.9-2.3 12.5-4.8 19.3-11.4 19.3-18.8s-6.8-14-19.3-18.8zm-14.8-30.5c4.1 2.4 5.5 9.8 3.8 20.3-.3 2.1-.8 4.3-1.4 6.6-5.2-1.2-10.7-2-16.5-2.5-3.4-4.8-6.9-9.1-10.4-13 7.4-7.3 14.9-12.3 21-12.3 1.3 0 2.5.3 3.5.9zm-11.2 59.3c-1.8 3.2-3.9 6.4-6.1 9.6-3.7.3-7.4.4-11.2.4-3.9 0-7.6-.1-11.2-.4-2.2-3.2-4.2-6.4-6-9.6-1.9-3.3-3.7-6.7-5.3-10 1.6-3.3 3.4-6.7 5.3-10 1.8-3.2 3.9-6.4 6.1-9.6 3.7-.3 7.4-.4 11.2-.4 3.9 0 7.6.1 11.2.4 2.2 3.2 4.2 6.4 6 9.6 1.9 3.3 3.7 6.7 5.3 10-1.7 3.3-3.4 6.6-5.3 10zm8.3-3.3c1.5 3.5 2.7 6.9 3.8 10.3-3.4.8-7 1.4-10.8 1.9 1.2-1.9 2.5-3.9 3.6-6 1.2-2.1 2.3-4.2 3.4-6.2zm-25.6 27.1c-2.4-2.6-4.7-5.4-6.9-8.3 2.3.1 4.6.2 6.9.2 2.3 0 4.6-.1 6.9-.2-2.2 2.9-4.5 5.7-6.9 8.3zm-18.6-15c-3.8-.5-7.4-1.1-10.8-1.9 1.1-3.3 2.3-6.8 3.8-10.3 1.1 2 2.2 4.1 3.4 6.1 1.2 2.2 2.4 4.1 3.6 6.1zm-7-25.5c-1.5-3.5-2.7-6.9-3.8-10.3 3.4-.8 7-1.4 10.8-1.9-1.2 1.9-2.5 3.9-3.6 6-1.2 2.1-2.3 4.2-3.4 6.2zm25.6-27.1c2.4 2.6 4.7 5.4 6.9 8.3-2.3-.1-4.6-.2-6.9-.2-2.3 0-4.6.1-6.9.2 2.2-2.9 4.5-5.7 6.9-8.3zm22.2 21l-3.6-6c3.8.5 7.4 1.1 10.8 1.9-1.1 3.3-2.3 6.8-3.8 10.3-1.1-2.1-2.2-4.2-3.4-6.2zm-54.5-16.2c-1.7-10.5-.3-17.9 3.8-20.3 1-.6 2.2-.9 3.5-.9 6 0 13.5 4.9 21 12.3-3.5 3.8-7 8.2-10.4 13-5.8.5-11.3 1.4-16.5 2.5-.6-2.3-1-4.5-1.4-6.6zm-24.7 29c0-4.7 5.7-9.7 15.7-13.4 2-.8 4.2-1.5 6.4-2.1 1.6 5 3.6 10.3 6 15.6-2.4 5.3-4.5 10.5-6 15.5-13.8-4-22.1-10-22.1-15.6zm28.5 49.3c-4.1-2.4-5.5-9.8-3.8-20.3.3-2.1.8-4.3 1.4-6.6 5.2 1.2 10.7 2 16.5 2.5 3.4 4.8 6.9 9.1 10.4 13-7.4 7.3-14.9 12.3-21 12.3-1.3 0-2.5-.3-3.5-.9zm60.8-20.3c1.7 10.5.3 17.9-3.8 20.3-1 .6-2.2.9-3.5.9-6 0-13.5-4.9-21-12.3 3.5-3.8 7-8.2 10.4-13 5.8-.5 11.3-1.4 16.5-2.5.6 2.3 1 4.5 1.4 6.6zm9-15.6c-2 .8-4.2 1.5-6.4 2.1-1.6-5-3.6-10.3-6-15.6 2.4-5.3 4.5-10.5 6-15.5 13.8 4 22.1 10 22.1 15.6 0 4.7-5.8 9.7-15.7 13.4z"/>
    </symbol>

    <symbol id="icon-linkedIn" viewBox="0 0 24 24" stroke-width="1.5" stroke-linecap="round" stroke-linejoin="round">
        <path d="M16 8a6 6 0 0 1 6 6v7h-4v-7a2 2 0 0 0-2-2 2 2 0 0 0-2 2v7h-4v-7a6 6 0 0 1 6-6z"></path>
        <rect x="2" y="9" width="4" height="12"></rect>
        <circle cx="4" cy="4" r="2"></circle>
    </symbol>

    <symbol id="icon-github" viewBox="0 0 24 24" stroke-width="1.5" stroke-linecap="round" stroke-linejoin="round">
        <path d="M9 19c-5 1.5-5-2.5-7-3m14 6v-3.87a3.37 3.37 0 0 0-.94-2.61c3.14-.35 6.44-1.54 6.44-7A5.44 5.44 0 0 0 20 4.77 5.07 5.07 0 0 0 19.91 1S18.73.65 16 2.48a13.38 13.38 0 0 0-7 0C6.27.65 5.09 1 5.09 1A5.07 5.07 0 0 0 5 4.77a5.44 5.44 0 0 0-1.5 3.78c0 5.42 3.3 6.61 6.44 7A3.37 3.37 0 0 0 9 18.13V22"></path>
    </symbol>

    <symbol id="icon-github-star" viewBox="0 0 21 24">
        <path d="M 21 9 L 13.648438 8.039062 L 10.5 1.5 L 7.351562 8.039062 L 0 9 L 5.398438 13.890625 L 4.003906 21 L 10.5 17.503906 L 16.996094 21 L 15.601562 13.890625 Z M 21 9 "/>
    </symbol>

    <symbol id="icon-github-fork" viewBox="0 0 10 16">
        <path d="M8 1a1.993 1.993 0 00-1 3.72V6L5 8 3 6V4.72A1.993 1.993 0 002 1a1.993 1.993 0 00-1 3.72V6.5l3 3v1.78A1.993 1.993 0 005 15a1.993 1.993 0 001-3.72V9.5l3-3V4.72A1.993 1.993 0 008 1zM2 4.2C1.34 4.2.8 3.65.8 3c0-.65.55-1.2 1.2-1.2.65 0 1.2.55 1.2 1.2 0 .65-.55 1.2-1.2 1.2zm3 10c-.66 0-1.2-.55-1.2-1.2 0-.65.55-1.2 1.2-1.2.65 0 1.2.55 1.2 1.2 0 .65-.55 1.2-1.2 1.2zm3-10c-.66 0-1.2-.55-1.2-1.2 0-.65.55-1.2 1.2-1.2.65 0 1.2.55 1.2 1.2 0 .65-.55 1.2-1.2 1.2z"></path>
    </symbol>

    <symbol id="icon-typescript" viewBox="0 0 24 24">
        <path style="fill:#fff" d="M 4.25 8.8125 L 22.9375 8.8125 L 22.9375 22.625 L 4.25 22.625 Z M 4.25 8.8125 "/>
        <path style="fill:#007acc" d="M 0.28125 11.984375 L 0.28125 23.703125 L 23.71875 23.703125 L 23.71875 0.265625 L 0.28125 0.265625 Z M 19.167969 11.046875 C 19.730469 11.175781 20.238281 11.46875 20.632812 11.890625 C 20.851562 12.117188 21.039062 12.367188 21.195312 12.640625 C 21.195312 12.667969 20.183594 13.355469 19.566406 13.734375 C 19.546875 13.75 19.453125 13.652344 19.355469 13.503906 C 19.125 13.109375 18.710938 12.859375 18.253906 12.84375 C 17.542969 12.796875 17.085938 13.167969 17.089844 13.78125 C 17.085938 13.933594 17.121094 14.085938 17.191406 14.21875 C 17.347656 14.542969 17.636719 14.738281 18.550781 15.132812 C 20.226562 15.851562 20.945312 16.328125 21.390625 17.007812 C 21.890625 17.757812 22 18.96875 21.664062 19.863281 C 21.289062 20.839844 20.371094 21.5 19.070312 21.71875 C 18.476562 21.789062 17.878906 21.78125 17.285156 21.703125 C 16.378906 21.550781 15.542969 21.117188 14.902344 20.457031 C 14.683594 20.21875 14.265625 19.597656 14.292969 19.554688 C 14.359375 19.503906 14.433594 19.457031 14.507812 19.417969 L 15.375 18.9375 L 16.046875 18.546875 L 16.1875 18.753906 C 16.425781 19.09375 16.726562 19.382812 17.078125 19.605469 C 17.828125 20 18.851562 19.945312 19.359375 19.492188 C 19.707031 19.144531 19.761719 18.601562 19.488281 18.191406 C 19.300781 17.933594 18.925781 17.714844 17.875 17.253906 C 16.667969 16.734375 16.144531 16.410156 15.667969 15.898438 C 15.371094 15.558594 15.152344 15.160156 15.027344 14.726562 C 14.933594 14.230469 14.917969 13.726562 14.984375 13.226562 C 15.234375 12.058594 16.109375 11.242188 17.390625 11 C 17.980469 10.925781 18.582031 10.945312 19.167969 11.050781 Z M 13.667969 12.027344 L 13.667969 12.988281 L 10.625 12.988281 L 10.625 21.65625 L 8.464844 21.65625 L 8.464844 12.984375 L 5.414062 12.984375 L 5.414062 12.046875 C 5.40625 11.726562 5.414062 11.402344 5.4375 11.078125 C 5.453125 11.0625 7.3125 11.0625 9.5625 11.0625 L 13.65625 11.0625 Z M 13.667969 12.027344 "/>
    </symbol>

    <symbol id="icon-adobeXd" viewBox="0 0 240 234">
        <path style="fill:#ff26be" d="M197.5,234h-155C19,234,0,215,0,191.5v-149C0,19,19,0,42.5,0h155C221,0,240,19,240,42.5v149 C240,215,221,234,197.5,234z"/>
        <path style="fill:#2e001f" d="M193.7,224H46.3c-20,0-36.3-16.3-36.3-36.3V46.3C10,26.3,26.3,10,46.3,10h147.3 c20.1,0,36.3,16.3,36.3,36.3v141.3C230,207.7,213.7,224,193.7,224z"/>
        <path style="fill:#ffd9f2" d="M94.9,109.5l28,53.8c0.5,0.8,0.2,1.6-0.6,1.6h-17.4c-1.1,0-1.6-0.3-2.1-1.3 c-6.4-13.2-12.9-26.4-19.6-40.6H83c-6,13.4-12.6,27.5-19,40.7c-0.5,0.8-1,1.1-1.8,1.1H45.7c-1,0-1.1-0.8-0.6-1.4l27.4-52.2L46,58.4 c-0.6-0.8,0-1.4,0.6-1.4h17.2c1,0,1.4,0.2,1.8,1.1c6.3,13.2,12.7,26.8,18.7,40.1h0.2c5.8-13.2,12.2-26.9,18.4-40 c0.5-0.8,0.8-1.3,1.8-1.3h16.1c0.8,0,1.1,0.6,0.6,1.4L94.9,109.5z M127.8,125.8c0-23.3,15.5-41.5,40.1-41.5c2.1,0,3.2,0,5.2,0.2V58 c0-0.6,0.5-1,1-1h15.8c0.8,0,1,0.3,1,0.8v91.8c0,2.7,0,6.1,0.5,9.8c0,0.6-0.2,0.8-0.8,1.1c-8.4,4-17.2,5.8-25.6,5.8 C143.3,166.4,127.8,153,127.8,125.8z M173.1,100.2c-1.4-0.6-3.4-1-5.8-1c-12.6,0-21.4,9.7-21.4,25.8c0,18.4,9,25.8,20.3,25.8c2.4,0,5-0.3,6.9-1.1V100.2z"/>
    </symbol>

    <symbol id="icon-education" viewBox="0 0 24 24" stroke-width="1.5" stroke-linecap="round" stroke-linejoin="round">
        <path d="M0 0h24v24H0z" fill="none"/>
        <path d="M5 13.18v4L12 21l7-3.82v-4L12 17l-7-3.82zM12 3L1 9l11 6 9-4.91V17h2V9L12 3z"/>
    </symbol>

    <symbol id="icon-jobs" viewBox="0 0 24 24" stroke-width="1.5" stroke-linecap="round" stroke-linejoin="round">
        <path d="M0 0h24v24H0z" fill="none"/>
        <path d="M20 6h-4V4c0-1.11-.89-2-2-2h-4c-1.11 0-2 .89-2 2v2H4c-1.11 0-1.99.89-1.99 2L2 19c0 1.11.89 2 2 2h16c1.11 0 2-.89 2-2V8c0-1.11-.89-2-2-2zm-6 0h-4V4h4v2z"/>
    </symbol>

    <symbol id="icon-projects" viewBox="0 0 24 24" stroke-width="1.5" stroke-linecap="round" stroke-linejoin="round">
        <path d="M0 0h24v24H0z" fill="none"/>
        <path d="M12 17.27L18.18 21l-1.64-7.03L22 9.24l-7.19-.61L12 2 9.19 8.63 2 9.24l5.46 4.73L5.82 21z"/>
    </symbol>

    <symbol id="icon-arrow-down" viewBox="0 0 24 24" stroke-width="1.5" stroke-linecap="round" stroke-linejoin="round">
        <polyline points="6 9 12 15 18 9"/>
    </symbol>
</svg>
